<?xml version="1.0" standalone="no"?><!DOCTYPE svg PUBLIC "-//W3C//DTD SVG 1.1//EN" "http://www.w3.org/Graphics/SVG/1.1/DTD/svg11.dtd"><svg t="1669018785050" class="icon" viewBox="0 0 1024 1024" version="1.1" xmlns="http://www.w3.org/2000/svg" p-id="1988" xmlns:xlink="http://www.w3.org/1999/xlink" width="200" height="200"><path d="M769.915212 158.32419c-76.608479-22.982544-178.753117-38.304239-260.468828-38.30424-71.501247 0-176.199501 7.660848-260.468828 38.30424-71.501247 25.53616-114.912718 56.179551-114.912718 81.71571 0 28.089776 43.411471 56.179551 114.912718 76.608479 66.394015 25.53616 158.32419 38.304239 263.022444 38.304239 102.144638 0 196.628429-12.76808 260.468828-38.304239 71.501247-20.428928 114.912718-48.518703 114.912718-76.608479-2.553616-25.53616-45.965087-56.179551-117.466334-81.71571zM509.446384 878.44389c-112.359102 0-211.950125-17.875312-275.790524-35.750623-112.359102-28.089776-135.341646-66.394015-135.341646-97.037407v-94.48379l20.428928 12.76808c10.214464 5.107232 17.875312 7.660848 28.089776 12.768079 43.411471 20.428928 79.162095 33.197007 127.680798 45.965088 71.501247 15.321696 153.216958 25.53616 227.27182 25.536159 76.608479 0 153.216958-7.660848 234.932668-25.536159 58.733167-12.76808 94.483791-28.089776 140.448878-48.518704l40.857856-17.875311v94.48379c0 35.750623-45.965087 68.947631-135.341646 94.483791-63.840399 20.428928-168.538653 33.197007-273.236908 33.197007z m-383.042394-183.860349v53.625935c0 28.089776 40.857855 53.625935 114.912718 71.501247 61.286783 15.321696 158.32419 33.197007 268.129676 33.197008 102.144638 0 201.735661-12.76808 265.57606-33.197008 71.501247-22.982544 114.912718-48.518703 114.912718-71.501247v-53.625935c-45.965087 20.428928-84.269327 38.304239-145.55611 51.072319-84.269327 17.875312-163.431421 25.53616-242.593516 25.53616-76.608479 0-163.431421-10.214464-234.932668-25.53616-53.625935-12.76808-91.930175-28.089776-135.341646-48.518703 0 0-2.553616 0-5.107232-2.553616z" fill="#1296db" p-id="1989"></path><path d="M509.446384 715.012469c-109.805486 0-211.950125-17.875312-275.790524-35.750624-112.359102-28.089776-135.341646-66.394015-135.341646-97.037406v-94.483791l43.411472 22.982544c45.965087 20.428928 81.715711 35.750623 132.78803 48.518703 155.770574 30.643392 301.326683 33.197007 469.865336 0 53.625935-12.76808 89.376559-28.089776 135.341646-48.518703l40.857856-17.875312V587.331671c0 28.089776-22.982544 68.947631-135.341646 97.037406-81.715711 17.875312-186.413965 30.643392-275.790524 30.643392z m-383.042394-183.860349v53.625935c0 28.089776 40.857855 53.625935 114.912718 71.501247 63.840399 15.321696 160.877805 33.197007 268.129676 33.197007 89.376559 0 188.967581-12.76808 268.129676-33.197007 71.501247-17.875312 114.912718-43.411471 114.912718-71.501247v-53.625935c-45.965087 20.428928-84.269327 38.304239-140.448878 51.072319-173.645885 33.197007-321.755611 33.197007-482.633416 0-58.733167-12.76808-97.037406-30.643392-143.002494-51.072319z" fill="#1296db" p-id="1990"></path><path d="M851.630923 66.394015C767.361596 28.089776 644.78803 10.214464 509.446384 10.214464c-135.341646 0-255.361596 20.428928-342.184539 56.179551C70.224439 109.805486 21.705736 160.877805 21.705736 224.718204v589.885287c0 56.179551 48.518703 114.912718 145.556109 153.216958 84.269327 38.304239 206.842893 56.179551 342.184539 56.179551 135.341646 0 255.361596-20.428928 342.184539-56.179551 91.930175-38.304239 145.55611-94.483791 145.556109-153.216958V224.718204c0-63.840399-48.518703-112.359102-145.556109-158.324189zM231.102244 130.234414c89.376559-33.197007 196.628429-40.857855 270.683292-40.857855 86.822943 0 188.967581 15.321696 270.683292 40.857855 89.376559 30.643392 135.341646 68.947631 135.341646 109.805486 0 25.53616-17.875312 74.054863-135.341646 104.698255-89.376559 35.750623-206.842893 40.857855-270.683292 40.857855-76.608479 0-183.860349-7.660848-270.683292-40.857855-86.822943-22.982544-132.78803-61.286783-132.78803-104.698255 0-40.857855 45.965087-79.162095 132.78803-109.805486z m684.369078 286.004987c0 43.411471-84.269327 74.054863-135.341646 89.376559-84.269327 22.982544-186.413965 35.750623-275.790524 35.750624-109.805486 0-211.950125-17.875312-275.790524-35.750624-89.376559-28.089776-135.341646-61.286783-135.341645-97.037406v-71.501247l20.428927 7.660848c17.875312 7.660848 35.750623 12.76808 53.625935 20.428927 33.197007 12.76808 63.840399 25.53616 102.144639 33.197008 163.431421 33.197007 306.433915 33.197007 469.865336 0 40.857855-5.107232 68.947631-17.875312 102.144639-33.197008 17.875312-7.660848 35.750623-15.321696 53.625935-20.428927l20.428928-7.660848v79.162094z" fill="#1296db" p-id="1991"></path><path d="M744.379052 423.900249c-165.985037 33.197007-314.094763 33.197007-482.633416 0-43.411471-7.660848-76.608479-20.428928-109.805486-35.750623-10.214464-5.107232-20.428928-7.660848-30.643392-12.76808v35.750624c0 22.982544 43.411471 48.518703 114.912718 71.501246 61.286783 15.321696 160.877805 33.197007 268.129676 33.197008 86.822943 0 186.413965-12.76808 268.129676-33.197008 79.162095-22.982544 114.912718-51.072319 114.912718-66.394015v-40.857855c-10.214464 5.107232-22.982544 7.660848-33.197007 12.76808-35.750623 15.321696-68.947631 28.089776-109.805487 35.750623z" fill="#1296db" p-id="1992"></path></svg>