<?xml version="1.0" standalone="no"?><!DOCTYPE svg PUBLIC "-//W3C//DTD SVG 1.1//EN" "http://www.w3.org/Graphics/SVG/1.1/DTD/svg11.dtd"><svg t="1668476103623" class="icon" viewBox="0 0 1024 1024" version="1.1" xmlns="http://www.w3.org/2000/svg" p-id="5258" xmlns:xlink="http://www.w3.org/1999/xlink" width="200" height="200"><path d="M230.1 616.8c-32 28.5-68.4 39.8-68.4 102.9h31.5c0-49 26.8-51.8 57.8-79.3 32-28.5 68.4-60.8 68.4-123.9s-36.3-95.4-68.4-123.9c-31-27.6-57.8-51.4-57.8-100.4 0-49 26.8-72.8 57.8-100.3 32-28.5 68.4-39.7 68.4-102.9h-31.5c0 49-26.8 51.8-57.8 79.3-32 28.5-68.4 60.8-68.4 123.9 0 63.2 36.3 95.4 68.4 123.9 31 27.6 57.8 51.4 57.8 100.4s-26.8 72.7-57.8 100.3zM493 606.2c-32 28.5-68.4 39.8-68.4 102.9h31.5c0-49 26.8-51.8 57.8-79.3 32-28.5 68.4-60.8 68.4-123.9S546 410.5 513.9 382c-31-27.6-57.8-51.4-57.8-100.4 0-49 26.8-72.8 57.8-100.3 32-28.5 68.4-39.7 68.4-102.9h-31.5c0 49-26.8 51.8-57.8 79.3-32 28.5-68.4 60.8-68.4 123.9 0 63.2 36.3 95.4 68.4 123.9 31 27.6 57.8 51.4 57.8 100.4S524 578.7 493 606.2zM776.8 595.7c-32 28.5-68.4 39.8-68.4 102.9H740c0-49 26.8-51.8 57.8-79.3 32-28.5 68.4-60.8 68.4-123.9s-36.3-95.4-68.4-123.9c-31-27.6-57.8-51.4-57.8-100.4 0-49 26.8-72.8 57.8-100.3 32-28.5 68.4-39.7 68.4-102.9h-31.5c0 49-26.8 51.8-57.8 79.3-32 28.5-68.4 60.8-68.4 123.9 0 63.2 36.3 95.4 68.4 123.9 31 27.6 57.8 51.4 57.8 100.4s-26.9 72.8-57.9 100.3zM102.2 831.4h813.9c7.5 0 13.6-7.1 13.6-15.8 0-8.7-6.1-15.8-13.6-15.8H102.2c-7.5 0-13.6 7.1-13.6 15.8 0 8.7 6.1 15.8 13.6 15.8zM916.1 915.5H102.2c-7.5 0-13.6 7.1-13.6 15.8 0 8.7 6.1 15.8 13.6 15.8h813.9c7.5 0 13.6-7.1 13.6-15.8 0-8.8-6.1-15.8-13.6-15.8z" fill="#1296db" p-id="5259"></path></svg>